#N canvas -43 22 1092 740 10;
#X obj 10 149 send \$0-arduino;
#X msg 50 29 close;
#X msg 32 8 open 2;
#X msg 63 57 pinMode 3 input;
#X obj 541 34 arduino 1;
#X obj 523 7 receive \$0-arduino;
#X obj 525 57 s \$0-arduino-out;
#X obj 278 8 r \$0-arduino-out;
#X obj 217 66 route digital;
#X obj 217 92 route 3;
#X obj 217 118 tgl 15 0 empty empty empty 17 7 0 10 -262144 -1 -1 0
1;
#X obj 325 66 route analog;
#X floatatom 325 118 5 0 0 0 - - -;
#X msg 73 80 analogIns 2 2;
#X obj 325 92 route 2;
#X obj 325 247 bng 15 250 50 0 empty empty empty 17 7 0 10 -262144
-1 -1;
#X floatatom 242 156 5 0 0 0 - - -;
#X obj 251 182 spigot;
#X obj 251 233 bng 15 250 50 0 empty empty empty 17 7 0 10 -262144
-1 -1;
#X obj 224 183 bng 15 250 50 0 empty empty empty 17 7 0 10 -262144
-1 -1;
#X obj 236 288 + 1;
#X obj 195 288 float;
#X floatatom 195 316 5 0 0 0 - - -;
#X obj 195 261 metro 100;
#X msg 224 210 stop;
#X msg 153 261 0;
#X floatatom 272 316 5 0 0 0 - - -;
#X obj 537 198 table loop;
#X obj 122 436 tabwrite loop;
#X obj 469 433 tabread loop;
#X obj 510 379 + 1;
#X obj 469 379 float;
#X obj 469 357 metro 100;
#X floatatom 444 466 5 0 0 0 - - -;
#X msg 639 465 0;
#X floatatom 571 397 5 0 0 0 - - -;
#X obj 639 440 bng 15 250 50 0 empty empty empty 17 7 0 10 -262144
-1 -1;
#X msg 469 311 stop;
#X obj 485 632 hsl 128 15 0.1 1 0 0 empty empty empty -2 -8 0 10 -262144
-1 -1 0 1;
#X obj 482 724 s \$0-arduino;
#X text 600 689 turn off;
#X msg 482 659 analog 9 \$1;
#X text 559 658 set pin and analog value;
#X msg 397 659 analog 9 0.5;
#X msg 482 579 0.4;
#X msg 516 689 analog 9 0.1;
#X msg 520 578 0.1;
#X obj 556 528 delay 100;
#X msg 75 111 pinMode 9 servo;
#X obj 332 143 * 1000;
#X floatatom 326 174 5 0 0 0 - - -;
#X obj 325 197 > 10;
#X obj 325 223 select 1;
#X msg 272 288 0.4;
#X text 540 551 comment;
#X text 552 575 comment;
#X obj 464 504 == 0.4;
#X obj 539 492 == 0;
#X msg 205 384 \; loop resize \$1;
#X obj 316 294 alternate;
#X obj 314 319 bng 15 250 50 0 empty empty empty 17 7 0 10 -262144
-1 -1;
#X obj 370 320 bng 15 250 50 0 empty empty empty 17 7 0 10 -262144
-1 -1;
#X obj 639 413 select \$1;
#X obj 245 360 send \$0-loopsize;
#X obj 690 383 receive \$0-loopsize;
#X connect 1 0 0 0;
#X connect 2 0 0 0;
#X connect 3 0 0 0;
#X connect 4 0 6 0;
#X connect 5 0 4 0;
#X connect 7 0 8 0;
#X connect 7 0 11 0;
#X connect 8 0 9 0;
#X connect 9 0 10 0;
#X connect 10 0 16 0;
#X connect 11 0 14 0;
#X connect 12 0 49 0;
#X connect 13 0 0 0;
#X connect 14 0 12 0;
#X connect 15 0 17 0;
#X connect 16 0 17 1;
#X connect 16 0 19 0;
#X connect 17 0 18 0;
#X connect 18 0 23 0;
#X connect 18 0 53 0;
#X connect 19 0 24 0;
#X connect 19 0 59 0;
#X connect 20 0 21 1;
#X connect 21 0 20 0;
#X connect 21 0 22 0;
#X connect 22 0 28 1;
#X connect 22 0 58 0;
#X connect 22 0 63 0;
#X connect 23 0 21 0;
#X connect 24 0 23 0;
#X connect 25 0 21 0;
#X connect 26 0 28 0;
#X connect 29 0 33 0;
#X connect 30 0 31 1;
#X connect 31 0 30 0;
#X connect 31 0 29 0;
#X connect 31 0 35 0;
#X connect 32 0 31 0;
#X connect 33 0 56 0;
#X connect 33 0 57 0;
#X connect 33 0 38 0;
#X connect 34 0 31 0;
#X connect 35 0 62 0;
#X connect 36 0 34 0;
#X connect 37 0 32 0;
#X connect 38 0 41 0;
#X connect 41 0 39 0;
#X connect 43 0 39 0;
#X connect 45 0 39 0;
#X connect 47 0 46 0;
#X connect 48 0 0 0;
#X connect 49 0 50 0;
#X connect 50 0 51 0;
#X connect 51 0 52 0;
#X connect 52 0 15 0;
#X connect 53 0 26 0;
#X connect 56 0 44 0;
#X connect 57 0 46 0;
#X connect 58 0 28 1;
#X connect 59 0 60 0;
#X connect 59 1 61 0;
#X connect 61 0 32 0;
#X connect 62 0 36 0;
#X connect 64 0 62 1;
