#N canvas 58 25 1092 740 10;
#X obj 10 149 send \$0-arduino;
#X msg 50 29 close;
#X msg 32 8 open 2;
#X msg 63 57 pinMode 3 input;
#X obj 541 34 arduino 1;
#X obj 523 7 receive \$0-arduino;
#X obj 525 57 s \$0-arduino-out;
#X obj 278 8 r \$0-arduino-out;
#X obj 217 69 route digital;
#X obj 222 113 route 3;
#X obj 230 149 tgl 15 0 empty empty empty 17 7 0 10 -262144 -1 -1 0
1;
#X obj 333 67 route analog;
#X floatatom 324 146 5 0 0 0 - - -;
#X msg 73 80 analogIns 2 2;
#X obj 328 108 route 2;
#X obj 321 233 select 1;
#X obj 326 262 bng 15 250 50 0 empty empty empty 17 7 0 10 -262144
-1 -1;
#X obj 322 194 > 0;
#X floatatom 232 183 5 0 0 0 - - -;
#X obj 156 177 metro 200;
#X obj 325 295 > 0;
#X obj 318 372 noteout;
#X msg 318 334 70 64 1;
#X obj 251 312 spigot;
#X obj 245 353 bng 15 250 50 0 empty empty empty 17 7 0 10 -262144
-1 -1;
#X obj 204 228 bng 15 250 50 0 empty empty empty 17 7 0 10 -262144
-1 -1;
#X obj 206 413 + 1;
#X obj 165 413 float;
#X floatatom 161 450 5 0 0 0 - - -;
#X obj 165 391 metro 100;
#X msg 99 290 stop;
#X msg 103 379 0;
#X floatatom 246 484 5 0 0 0 - - -;
#X obj 533 436 table loop;
#X obj 109 557 tabwrite loop;
#X obj 430 512 tabread loop;
#X obj 457 458 + 1;
#X obj 416 458 float;
#X obj 416 436 metro 100;
#X floatatom 429 554 5 0 0 0 - - -;
#X obj 339 446 bng 15 250 50 0 empty empty empty 17 7 0 10 -262144
-1 -1;
#X msg 583 579 0;
#X floatatom 528 466 5 0 0 0 - - -;
#X obj 586 506 select 99;
#X obj 601 534 bng 15 250 50 0 empty empty empty 17 7 0 10 -262144
-1 -1;
#X msg 460 390 stop;
#X obj 285 401 select 99;
#X msg 64 499 clear;
#X obj 494 590 tgl 15 0 empty empty empty 17 7 0 10 -262144 -1 -1 0
80;
#X obj 441 698 send \$0-arduino;
#X msg 75 111 pinMode 9 pwm;
#X msg 252 447 80;
#X msg 441 650 pwm 9 \$1;
#X connect 1 0 0 0;
#X connect 2 0 0 0;
#X connect 3 0 0 0;
#X connect 4 0 6 0;
#X connect 5 0 4 0;
#X connect 7 0 8 0;
#X connect 7 0 11 0;
#X connect 8 0 9 0;
#X connect 9 0 10 0;
#X connect 10 0 18 0;
#X connect 10 0 19 0;
#X connect 11 0 14 0;
#X connect 12 0 17 0;
#X connect 13 0 0 0;
#X connect 14 0 12 0;
#X connect 15 0 16 0;
#X connect 16 0 20 0;
#X connect 16 0 23 0;
#X connect 17 0 15 0;
#X connect 18 0 23 1;
#X connect 18 0 25 0;
#X connect 20 0 22 0;
#X connect 22 0 21 0;
#X connect 23 0 24 0;
#X connect 24 0 29 0;
#X connect 24 0 51 0;
#X connect 25 0 30 0;
#X connect 26 0 27 1;
#X connect 27 0 26 0;
#X connect 27 0 28 0;
#X connect 28 0 34 1;
#X connect 28 0 46 0;
#X connect 29 0 27 0;
#X connect 30 0 29 0;
#X connect 31 0 27 0;
#X connect 32 0 34 0;
#X connect 35 0 39 0;
#X connect 36 0 37 1;
#X connect 37 0 36 0;
#X connect 37 0 35 0;
#X connect 37 0 42 0;
#X connect 38 0 37 0;
#X connect 39 0 48 0;
#X connect 39 0 52 0;
#X connect 40 0 38 0;
#X connect 41 0 37 0;
#X connect 42 0 43 0;
#X connect 43 0 44 0;
#X connect 44 0 41 0;
#X connect 45 0 38 0;
#X connect 46 0 40 0;
#X connect 47 0 34 0;
#X connect 50 0 0 0;
#X connect 51 0 32 0;
#X connect 52 0 49 0;
