#N canvas 142 38 1092 740 10;
#X obj 10 149 send \$0-arduino;
#X msg 50 29 close;
#X msg 32 8 open 2;
#X msg 63 57 pinMode 3 input;
#X obj 541 34 arduino 1;
#X obj 523 7 receive \$0-arduino;
#X obj 525 57 s \$0-arduino-out;
#X obj 278 8 r \$0-arduino-out;
#X obj 217 66 route digital;
#X obj 217 92 route 3;
#X obj 217 118 tgl 15 0 empty empty empty 17 7 0 10 -262144 -1 -1 0
1;
#X obj 325 66 route analog;
#X floatatom 325 118 5 0 0 0 - - -;
#X msg 73 80 analogIns 2 2;
#X obj 325 92 route 2;
#X obj 325 169 select 1;
#X obj 325 193 bng 15 250 50 0 empty empty empty 17 7 0 10 -262144
-1 -1;
#X obj 325 143 > 0;
#X floatatom 242 156 5 0 0 0 - - -;
#X obj 251 182 spigot;
#X obj 251 233 bng 15 250 50 0 empty empty empty 17 7 0 10 -262144
-1 -1;
#X obj 224 183 bng 15 250 50 0 empty empty empty 17 7 0 10 -262144
-1 -1;
#X obj 236 288 + 1;
#X obj 195 288 float;
#X floatatom 195 316 5 0 0 0 - - -;
#X obj 195 261 metro 100;
#X msg 224 210 stop;
#X msg 153 261 0;
#X floatatom 272 316 5 0 0 0 - - -;
#X obj 555 182 table loop;
#X obj 120 387 tabwrite loop;
#X obj 438 258 tabread loop;
#X obj 479 204 + 1;
#X obj 438 204 float;
#X obj 438 182 metro 100;
#X floatatom 438 287 5 0 0 0 - - -;
#X obj 339 426 bng 15 250 50 0 empty empty empty 17 7 0 10 -262144
-1 -1;
#X msg 608 290 0;
#X floatatom 540 222 5 0 0 0 - - -;
#X obj 608 238 select 99;
#X obj 608 265 bng 15 250 50 0 empty empty empty 17 7 0 10 -262144
-1 -1;
#X msg 438 136 stop;
#X obj 265 371 select 99;
#X obj 420 556 hsl 128 15 0.1 1 0 0 empty empty empty -2 -8 0 10 -262144
-1 -1 0 1;
#X obj 417 648 s \$0-arduino;
#X text 535 613 turn off;
#X obj 455 414 bng 15 250 50 0 empty empty empty 17 7 0 10 -262144
-1 -1;
#X obj 453 467 bng 15 250 50 0 empty empty empty 17 7 0 10 -262144
-1 -1;
#X msg 417 583 analog 9 \$1;
#X text 522 535 set range from 0.1-1 in properties;
#X text 494 582 set pin and analog value;
#X msg 332 583 analog 9 0.5;
#X text 487 499 0.1 NOT 0 to shut off;
#X text 475 475 just to visualize delay...;
#X msg 417 503 0.4;
#X floatatom 506 422 5 0 0 0 - - -;
#X msg 451 613 analog 9 0.1;
#X msg 455 502 0.1;
#X obj 491 452 delay 100;
#X msg 75 111 pinMode 9 servo;
#X obj 438 314 tgl 15 0 empty empty empty 17 7 0 10 -262144 -1 -1 0
1;
#X msg 272 288 1;
#X connect 1 0 0 0;
#X connect 2 0 0 0;
#X connect 3 0 0 0;
#X connect 4 0 6 0;
#X connect 5 0 4 0;
#X connect 7 0 8 0;
#X connect 7 0 11 0;
#X connect 8 0 9 0;
#X connect 9 0 10 0;
#X connect 10 0 18 0;
#X connect 11 0 14 0;
#X connect 12 0 17 0;
#X connect 13 0 0 0;
#X connect 14 0 12 0;
#X connect 15 0 16 0;
#X connect 16 0 19 0;
#X connect 17 0 15 0;
#X connect 18 0 19 1;
#X connect 18 0 21 0;
#X connect 19 0 20 0;
#X connect 20 0 25 0;
#X connect 20 0 61 0;
#X connect 21 0 26 0;
#X connect 22 0 23 1;
#X connect 23 0 22 0;
#X connect 23 0 24 0;
#X connect 24 0 30 1;
#X connect 24 0 42 0;
#X connect 25 0 23 0;
#X connect 26 0 25 0;
#X connect 27 0 23 0;
#X connect 28 0 30 0;
#X connect 31 0 35 0;
#X connect 32 0 33 1;
#X connect 33 0 32 0;
#X connect 33 0 31 0;
#X connect 33 0 38 0;
#X connect 34 0 33 0;
#X connect 35 0 60 0;
#X connect 36 0 34 0;
#X connect 37 0 33 0;
#X connect 38 0 39 0;
#X connect 39 0 40 0;
#X connect 40 0 37 0;
#X connect 41 0 34 0;
#X connect 42 0 36 0;
#X connect 43 0 48 0;
#X connect 46 0 47 0;
#X connect 46 0 58 0;
#X connect 47 0 54 0;
#X connect 48 0 44 0;
#X connect 51 0 44 0;
#X connect 54 0 43 0;
#X connect 55 0 58 1;
#X connect 56 0 44 0;
#X connect 57 0 43 0;
#X connect 58 0 57 0;
#X connect 59 0 0 0;
#X connect 60 0 54 0;
#X connect 60 0 58 0;
#X connect 61 0 28 0;
